<svg width="139" height="55" viewBox="0 0 139 55" fill="none" xmlns="http://www.w3.org/2000/svg">
<g filter="url(#filter0_dd_1_492)">
<g clip-path="url(#clip0_1_492)">
<rect x="6" y="4.26665" width="42.6667" height="42.6667" rx="21.3333" fill="#196264"/>
<g opacity="0.5">
<path opacity="0.32" d="M36.0699 18.2794C36.0557 18.2369 36.0286 18.1999 35.9923 18.1736C35.9559 18.1474 35.9123 18.1333 35.8674 18.1333C35.8226 18.1333 35.779 18.1474 35.7426 18.1736C35.7063 18.1999 35.6791 18.2369 35.665 18.2794L35.5193 18.7169C35.5089 18.7483 35.4912 18.7769 35.4678 18.8003C35.4443 18.8238 35.4158 18.8414 35.3843 18.8519L34.9468 18.9976C34.9043 19.0117 34.8673 19.0388 34.8411 19.0752C34.8149 19.1115 34.8008 19.1552 34.8008 19.2C34.8008 19.2448 34.8149 19.2885 34.8411 19.3248C34.8673 19.3611 34.9043 19.3883 34.9468 19.4024L35.3843 19.5483C35.4157 19.5588 35.4443 19.5764 35.4677 19.5998C35.4912 19.6232 35.5088 19.6517 35.5193 19.6831L35.665 20.1206C35.6791 20.1631 35.7063 20.2001 35.7426 20.2263C35.779 20.2525 35.8226 20.2667 35.8674 20.2667C35.9123 20.2667 35.9559 20.2525 35.9923 20.2263C36.0286 20.2001 36.0557 20.1631 36.0699 20.1206L36.2156 19.6831C36.226 19.6517 36.2437 19.6231 36.2671 19.5997C36.2906 19.5762 36.3191 19.5586 36.3506 19.5481L36.7881 19.4024C36.8306 19.3883 36.8676 19.3611 36.8938 19.3248C36.92 19.2885 36.9341 19.2448 36.9341 19.2C36.9341 19.1552 36.92 19.1115 36.8938 19.0752C36.8676 19.0388 36.8306 19.0117 36.7881 18.9976L36.3506 18.8519C36.3191 18.8414 36.2906 18.8238 36.2671 18.8003C36.2437 18.7769 36.226 18.7483 36.2156 18.7169L36.0699 18.2794Z" fill="white"/>
<g opacity="0.09" filter="url(#filter1_f_1_492)">
<path d="M41.4029 5.47937C41.3888 5.43685 41.3616 5.39986 41.3253 5.37365C41.2889 5.34743 41.2453 5.33332 41.2005 5.33332C41.1557 5.33332 41.112 5.34743 41.0756 5.37365C41.0393 5.39986 41.0122 5.43685 40.998 5.47937L40.8523 5.91686C40.8419 5.94831 40.8242 5.97688 40.8008 6.00032C40.7774 6.02376 40.7488 6.04141 40.7173 6.05188L40.2798 6.19756C40.2373 6.21169 40.2003 6.23885 40.1741 6.27518C40.1479 6.31151 40.1338 6.35518 40.1338 6.39999C40.1338 6.44479 40.1479 6.48846 40.1741 6.52479C40.2003 6.56113 40.2373 6.58829 40.2798 6.60241L40.7173 6.74831C40.7488 6.75876 40.7773 6.77638 40.8007 6.79978C40.8242 6.82317 40.8419 6.85171 40.8523 6.88312L40.998 7.3206C41.0122 7.36312 41.0393 7.40011 41.0756 7.42633C41.112 7.45255 41.1557 7.46665 41.2005 7.46665C41.2453 7.46665 41.2889 7.45255 41.3253 7.42633C41.3616 7.40011 41.3888 7.36312 41.4029 7.3206L41.5486 6.88312C41.559 6.85167 41.5767 6.82309 41.6001 6.79965C41.6236 6.77622 41.6521 6.75856 41.6836 6.7481L42.1211 6.60241C42.1636 6.58829 42.2006 6.56113 42.2268 6.52479C42.253 6.48846 42.2671 6.44479 42.2671 6.39999C42.2671 6.35518 42.253 6.31151 42.2268 6.27518C42.2006 6.23885 42.1636 6.21169 42.1211 6.19756L41.6836 6.05188C41.6521 6.04141 41.6236 6.02376 41.6001 6.00032C41.5767 5.97688 41.559 5.94831 41.5486 5.91686L41.4029 5.47937Z" fill="white"/>
</g>
<path opacity="0.11" d="M17.9361 21.4794C17.922 21.4369 17.8948 21.3999 17.8585 21.3736C17.8221 21.3474 17.7785 21.3333 17.7337 21.3333C17.6889 21.3333 17.6452 21.3474 17.6089 21.3736C17.5725 21.3999 17.5454 21.4369 17.5312 21.4794L17.3855 21.9169C17.3751 21.9483 17.3574 21.9769 17.334 22.0003C17.3106 22.0238 17.282 22.0414 17.2505 22.0519L16.813 22.1976C16.7705 22.2117 16.7335 22.2388 16.7073 22.2752C16.6811 22.3115 16.667 22.3552 16.667 22.4C16.667 22.4448 16.6811 22.4885 16.7073 22.5248C16.7335 22.5611 16.7705 22.5883 16.813 22.6024L17.2505 22.7483C17.282 22.7588 17.3105 22.7764 17.334 22.7998C17.3574 22.8232 17.3751 22.8517 17.3855 22.8831L17.5312 23.3206C17.5454 23.3631 17.5725 23.4001 17.6089 23.4263C17.6452 23.4525 17.6889 23.4667 17.7337 23.4667C17.7785 23.4667 17.8221 23.4525 17.8585 23.4263C17.8948 23.4001 17.922 23.3631 17.9361 23.3206L18.0818 22.8831C18.0922 22.8517 18.1099 22.8231 18.1333 22.7997C18.1568 22.7762 18.1853 22.7586 18.2168 22.7481L18.6543 22.6024C18.6968 22.5883 18.7338 22.5611 18.76 22.5248C18.7862 22.4885 18.8003 22.4448 18.8003 22.4C18.8003 22.3552 18.7862 22.3115 18.76 22.2752C18.7338 22.2388 18.6968 22.2117 18.6543 22.1976L18.2168 22.0519C18.1853 22.0414 18.1568 22.0238 18.1333 22.0003C18.1099 21.9769 18.0922 21.9483 18.0818 21.9169L17.9361 21.4794Z" fill="white"/>
<path opacity="0.45" d="M6.20268 26.8127C6.18856 26.7702 6.1614 26.7332 6.12507 26.707C6.08873 26.6808 6.04507 26.6667 6.00026 26.6667C5.95546 26.6667 5.91179 26.6808 5.87545 26.707C5.83912 26.7332 5.81196 26.7702 5.79784 26.8127L5.65215 27.2502C5.64168 27.2816 5.62403 27.3102 5.60059 27.3337C5.57716 27.3571 5.54858 27.3747 5.51713 27.3852L5.07965 27.5309C5.03713 27.545 5.00013 27.5722 4.97392 27.6085C4.9477 27.6449 4.93359 27.6885 4.93359 27.7333C4.93359 27.7781 4.9477 27.8218 4.97392 27.8581C5.00013 27.8945 5.03713 27.9216 5.07965 27.9357L5.51713 28.0816C5.54856 28.0921 5.57712 28.1097 5.60055 28.1331C5.62399 28.1565 5.64165 28.185 5.65215 28.2165L5.79784 28.6539C5.81196 28.6965 5.83912 28.7334 5.87545 28.7597C5.91179 28.7859 5.95546 28.8 6.00026 28.8C6.04507 28.8 6.08873 28.7859 6.12507 28.7597C6.1614 28.7334 6.18856 28.6965 6.20268 28.6539L6.34837 28.2165C6.35884 28.185 6.37649 28.1564 6.39993 28.133C6.42337 28.1096 6.45194 28.0919 6.48339 28.0814L6.92087 27.9357C6.96339 27.9216 7.00039 27.8945 7.0266 27.8581C7.05282 27.8218 7.06693 27.7781 7.06693 27.7333C7.06693 27.6885 7.05282 27.6449 7.0266 27.6085C7.00039 27.5722 6.96339 27.545 6.92087 27.5309L6.48339 27.3852C6.45194 27.3747 6.42337 27.3571 6.39993 27.3337C6.37649 27.3102 6.35884 27.2816 6.34837 27.2502L6.20268 26.8127Z" fill="white"/>
<path opacity="0.2" d="M39.2691 15.0794C39.255 15.0369 39.2278 14.9999 39.1915 14.9736C39.1551 14.9474 39.1115 14.9333 39.0667 14.9333C39.0219 14.9333 38.9782 14.9474 38.9419 14.9736C38.9055 14.9999 38.8784 15.0369 38.8642 15.0794L38.7186 15.5169C38.7081 15.5483 38.6904 15.5769 38.667 15.6003C38.6436 15.6238 38.615 15.6414 38.5835 15.6519L38.1461 15.7976C38.1035 15.8117 38.0665 15.8388 38.0403 15.8752C38.0141 15.9115 38 15.9552 38 16C38 16.0448 38.0141 16.0885 38.0403 16.1248C38.0665 16.1611 38.1035 16.1883 38.1461 16.2024L38.5835 16.3483C38.615 16.3588 38.6435 16.3764 38.667 16.3998C38.6904 16.4232 38.7081 16.4517 38.7186 16.4831L38.8642 16.9206C38.8784 16.9631 38.9055 17.0001 38.9419 17.0263C38.9782 17.0525 39.0219 17.0667 39.0667 17.0667C39.1115 17.0667 39.1551 17.0525 39.1915 17.0263C39.2278 17.0001 39.255 16.9631 39.2691 16.9206L39.4148 16.4831C39.4252 16.4517 39.4429 16.4231 39.4663 16.3997C39.4898 16.3762 39.5183 16.3586 39.5498 16.3481L39.9873 16.2024C40.0298 16.1883 40.0668 16.1611 40.093 16.1248C40.1192 16.0885 40.1333 16.0448 40.1333 16C40.1333 15.9552 40.1192 15.9115 40.093 15.8752C40.0668 15.8388 40.0298 15.8117 39.9873 15.7976L39.5498 15.6519C39.5183 15.6414 39.4898 15.6238 39.4663 15.6003C39.4429 15.5769 39.4252 15.5483 39.4148 15.5169L39.2691 15.0794Z" fill="white"/>
<path opacity="0.32" d="M25.4029 6.54604C25.3888 6.50352 25.3616 6.46653 25.3253 6.44032C25.2889 6.4141 25.2453 6.39999 25.2005 6.39999C25.1557 6.39999 25.112 6.4141 25.0756 6.44032C25.0393 6.46653 25.0122 6.50352 24.998 6.54604L24.8523 6.98353C24.8419 7.01498 24.8242 7.04355 24.8008 7.06699C24.7774 7.09043 24.7488 7.10808 24.7173 7.11855L24.2798 7.26423C24.2373 7.27836 24.2003 7.30552 24.1741 7.34185C24.1479 7.37818 24.1338 7.42185 24.1338 7.46666C24.1338 7.51146 24.1479 7.55513 24.1741 7.59146C24.2003 7.6278 24.2373 7.65495 24.2798 7.66908L24.7173 7.81498C24.7488 7.82543 24.7773 7.84305 24.8007 7.86645C24.8242 7.88984 24.8419 7.91838 24.8523 7.94979L24.998 8.38727C25.0122 8.42979 25.0393 8.46678 25.0756 8.493C25.112 8.51921 25.1557 8.53332 25.2005 8.53332C25.2453 8.53332 25.2889 8.51921 25.3253 8.493C25.3616 8.46678 25.3888 8.42979 25.4029 8.38727L25.5486 7.94979C25.559 7.91834 25.5767 7.88976 25.6001 7.86632C25.6236 7.84289 25.6521 7.82523 25.6836 7.81477L26.1211 7.66908C26.1636 7.65495 26.2006 7.6278 26.2268 7.59146C26.253 7.55513 26.2671 7.51146 26.2671 7.46666C26.2671 7.42185 26.253 7.37818 26.2268 7.34185C26.2006 7.30552 26.1636 7.27836 26.1211 7.26423L25.6836 7.11855C25.6521 7.10808 25.6236 7.09043 25.6001 7.06699C25.5767 7.04355 25.559 7.01498 25.5486 6.98353L25.4029 6.54604Z" fill="white"/>
<g opacity="0.55" filter="url(#filter2_f_1_492)">
<path d="M33.9361 16.146C33.922 16.1035 33.8948 16.0665 33.8585 16.0403C33.8221 16.0141 33.7785 16 33.7337 16C33.6889 16 33.6452 16.0141 33.6089 16.0403C33.5725 16.0665 33.5454 16.1035 33.5312 16.146L33.3855 16.5835C33.3751 16.615 33.3574 16.6435 33.334 16.667C33.3106 16.6904 33.282 16.7081 33.2505 16.7185L32.813 16.8642C32.7705 16.8784 32.7335 16.9055 32.7073 16.9418C32.6811 16.9782 32.667 17.0218 32.667 17.0667C32.667 17.1115 32.6811 17.1551 32.7073 17.1915C32.7335 17.2278 32.7705 17.2549 32.813 17.2691L33.2505 17.415C33.282 17.4254 33.3105 17.443 33.334 17.4664C33.3574 17.4898 33.3751 17.5184 33.3855 17.5498L33.5312 17.9873C33.5454 18.0298 33.5725 18.0668 33.6089 18.093C33.6452 18.1192 33.6889 18.1333 33.7337 18.1333C33.7785 18.1333 33.8221 18.1192 33.8585 18.093C33.8948 18.0668 33.922 18.0298 33.9361 17.9873L34.0818 17.5498C34.0922 17.5183 34.1099 17.4898 34.1333 17.4663C34.1568 17.4429 34.1853 17.4252 34.2168 17.4148L34.6543 17.2691C34.6968 17.2549 34.7338 17.2278 34.76 17.1915C34.7862 17.1551 34.8003 17.1115 34.8003 17.0667C34.8003 17.0218 34.7862 16.9782 34.76 16.9418C34.7338 16.9055 34.6968 16.8784 34.6543 16.8642L34.2168 16.7185C34.1853 16.7081 34.1568 16.6904 34.1333 16.667C34.1099 16.6435 34.0922 16.615 34.0818 16.5835L33.9361 16.146Z" fill="white"/>
</g>
<g opacity="0.31" filter="url(#filter3_f_1_492)">
<path d="M21.1363 16.146C21.1222 16.1035 21.095 16.0665 21.0587 16.0403C21.0223 16.0141 20.9787 16 20.9339 16C20.889 16 20.8454 16.0141 20.809 16.0403C20.7727 16.0665 20.7456 16.1035 20.7314 16.146L20.5857 16.5835C20.5753 16.615 20.5576 16.6435 20.5342 16.667C20.5107 16.6904 20.4822 16.7081 20.4507 16.7185L20.0132 16.8642C19.9707 16.8784 19.9337 16.9055 19.9075 16.9418C19.8813 16.9782 19.8672 17.0218 19.8672 17.0667C19.8672 17.1115 19.8813 17.1551 19.9075 17.1915C19.9337 17.2278 19.9707 17.2549 20.0132 17.2691L20.4507 17.415C20.4822 17.4254 20.5107 17.443 20.5341 17.4664C20.5576 17.4898 20.5752 17.5184 20.5857 17.5498L20.7314 17.9873C20.7456 18.0298 20.7727 18.0668 20.809 18.093C20.8454 18.1192 20.889 18.1333 20.9339 18.1333C20.9787 18.1333 21.0223 18.1192 21.0587 18.093C21.095 18.0668 21.1222 18.0298 21.1363 17.9873L21.282 17.5498C21.2924 17.5183 21.3101 17.4898 21.3335 17.4663C21.357 17.4429 21.3855 17.4252 21.417 17.4148L21.8545 17.2691C21.897 17.2549 21.934 17.2278 21.9602 17.1915C21.9864 17.1551 22.0005 17.1115 22.0005 17.0667C22.0005 17.0218 21.9864 16.9782 21.9602 16.9418C21.934 16.9055 21.897 16.8784 21.8545 16.8642L21.417 16.7185C21.3855 16.7081 21.357 16.6904 21.3335 16.667C21.3101 16.6435 21.2924 16.615 21.282 16.5835L21.1363 16.146Z" fill="white"/>
</g>
<g opacity="0.17" filter="url(#filter4_f_1_492)">
<path d="M32.8697 6.54604C32.8556 6.50352 32.8284 6.46653 32.7921 6.44032C32.7557 6.4141 32.7121 6.39999 32.6673 6.39999C32.6224 6.39999 32.5788 6.4141 32.5424 6.44032C32.5061 6.46653 32.479 6.50352 32.4648 6.54604L32.3191 6.98353C32.3087 7.01498 32.291 7.04355 32.2676 7.06699C32.2441 7.09043 32.2156 7.10808 32.1841 7.11855L31.7466 7.26423C31.7041 7.27836 31.6671 7.30552 31.6409 7.34185C31.6147 7.37818 31.6006 7.42185 31.6006 7.46666C31.6006 7.51146 31.6147 7.55513 31.6409 7.59146C31.6671 7.6278 31.7041 7.65495 31.7466 7.66908L32.1841 7.81498C32.2155 7.82543 32.2441 7.84305 32.2675 7.86645C32.291 7.88984 32.3086 7.91838 32.3191 7.94979L32.4648 8.38727C32.479 8.42979 32.5061 8.46678 32.5424 8.493C32.5788 8.51921 32.6224 8.53332 32.6673 8.53332C32.7121 8.53332 32.7557 8.51921 32.7921 8.493C32.8284 8.46678 32.8556 8.42979 32.8697 8.38727L33.0154 7.94979C33.0258 7.91834 33.0435 7.88976 33.0669 7.86632C33.0904 7.84289 33.1189 7.82523 33.1504 7.81477L33.5879 7.66908C33.6304 7.65495 33.6674 7.6278 33.6936 7.59146C33.7198 7.55513 33.7339 7.51146 33.7339 7.46666C33.7339 7.42185 33.7198 7.37818 33.6936 7.34185C33.6674 7.30552 33.6304 7.27836 33.5879 7.26423L33.1504 7.11855C33.1189 7.10808 33.0904 7.09043 33.0669 7.06699C33.0435 7.04355 33.0258 7.01498 33.0154 6.98353L32.8697 6.54604Z" fill="white"/>
</g>
<path opacity="0.33" d="M12.6031 14.0127C12.5889 13.9702 12.5618 13.9332 12.5255 13.907C12.4891 13.8808 12.4455 13.8667 12.4007 13.8667C12.3558 13.8667 12.3122 13.8808 12.2758 13.907C12.2395 13.9332 12.2124 13.9702 12.1982 14.0127L12.0525 14.4502C12.0421 14.4816 12.0244 14.5102 12.001 14.5337C11.9775 14.5571 11.949 14.5747 11.9175 14.5852L11.48 14.7309C11.4375 14.745 11.4005 14.7722 11.3743 14.8085C11.3481 14.8448 11.334 14.8885 11.334 14.9333C11.334 14.9781 11.3481 15.0218 11.3743 15.0581C11.4005 15.0945 11.4375 15.1216 11.48 15.1357L11.9175 15.2816C11.9489 15.2921 11.9775 15.3097 12.0009 15.3331C12.0244 15.3565 12.042 15.385 12.0525 15.4165L12.1982 15.8539C12.2124 15.8965 12.2395 15.9334 12.2758 15.9597C12.3122 15.9859 12.3558 16 12.4007 16C12.4455 16 12.4891 15.9859 12.5255 15.9597C12.5618 15.9334 12.5889 15.8965 12.6031 15.8539L12.7488 15.4165C12.7592 15.385 12.7769 15.3564 12.8003 15.333C12.8238 15.3096 12.8523 15.2919 12.8838 15.2814L13.3213 15.1357C13.3638 15.1216 13.4008 15.0945 13.427 15.0581C13.4532 15.0218 13.4673 14.9781 13.4673 14.9333C13.4673 14.8885 13.4532 14.8448 13.427 14.8085C13.4008 14.7722 13.3638 14.745 13.3213 14.7309L12.8838 14.5852C12.8523 14.5747 12.8238 14.5571 12.8003 14.5337C12.7769 14.5102 12.7592 14.4816 12.7488 14.4502L12.6031 14.0127Z" fill="white"/>
<g opacity="0.47" filter="url(#filter5_f_1_492)">
<path d="M4.06987 5.47937C4.05575 5.43685 4.02859 5.39986 3.99225 5.37365C3.95592 5.34743 3.91225 5.33332 3.86745 5.33332C3.82264 5.33332 3.77898 5.34743 3.74264 5.37365C3.70631 5.39986 3.67915 5.43685 3.66502 5.47937L3.51934 5.91686C3.50887 5.94831 3.49122 5.97688 3.46778 6.00032C3.44434 6.02376 3.41577 6.04141 3.38432 6.05188L2.94683 6.19756C2.90431 6.21169 2.86732 6.23885 2.84111 6.27518C2.81489 6.31151 2.80078 6.35518 2.80078 6.39999C2.80078 6.44479 2.81489 6.48846 2.84111 6.52479C2.86732 6.56113 2.90431 6.58829 2.94683 6.60241L3.38432 6.74831C3.41574 6.75876 3.44431 6.77638 3.46774 6.79978C3.49118 6.82317 3.50884 6.85171 3.51934 6.88312L3.66502 7.3206C3.67915 7.36312 3.70631 7.40011 3.74264 7.42633C3.77898 7.45255 3.82264 7.46665 3.86745 7.46665C3.91225 7.46665 3.95592 7.45255 3.99225 7.42633C4.02859 7.40011 4.05575 7.36312 4.06987 7.3206L4.21556 6.88312C4.22603 6.85167 4.24368 6.82309 4.26712 6.79965C4.29055 6.77622 4.31913 6.75856 4.35058 6.7481L4.78806 6.60241C4.83058 6.58829 4.86757 6.56113 4.89379 6.52479C4.92001 6.48846 4.93411 6.44479 4.93411 6.39999C4.93411 6.35518 4.92001 6.31151 4.89379 6.27518C4.86757 6.23885 4.83058 6.21169 4.78806 6.19756L4.35058 6.05188C4.31913 6.04141 4.29055 6.02376 4.26712 6.00032C4.24368 5.97688 4.22603 5.94831 4.21556 5.91686L4.06987 5.47937Z" fill="white"/>
</g>
<g opacity="0.21" filter="url(#filter6_f_1_492)">
<path d="M30.7359 19.346C30.7218 19.3035 30.6946 19.2665 30.6583 19.2403C30.6219 19.2141 30.5783 19.2 30.5335 19.2C30.4887 19.2 30.445 19.2141 30.4087 19.2403C30.3723 19.2665 30.3452 19.3035 30.331 19.346L30.1854 19.7835C30.1749 19.815 30.1572 19.8436 30.1338 19.867C30.1104 19.8904 30.0818 19.9081 30.0503 19.9185L29.6129 20.0642C29.5703 20.0784 29.5333 20.1055 29.5071 20.1418C29.4809 20.1782 29.4668 20.2219 29.4668 20.2667C29.4668 20.3115 29.4809 20.3551 29.5071 20.3915C29.5333 20.4278 29.5703 20.455 29.6129 20.4691L30.0503 20.615C30.0818 20.6254 30.1103 20.643 30.1338 20.6664C30.1572 20.6898 30.1749 20.7184 30.1854 20.7498L30.331 21.1873C30.3452 21.2298 30.3723 21.2668 30.4087 21.293C30.445 21.3192 30.4887 21.3333 30.5335 21.3333C30.5783 21.3333 30.6219 21.3192 30.6583 21.293C30.6946 21.2668 30.7218 21.2298 30.7359 21.1873L30.8816 20.7498C30.892 20.7183 30.9097 20.6898 30.9331 20.6663C30.9566 20.6429 30.9851 20.6252 31.0166 20.6148L31.4541 20.4691C31.4966 20.455 31.5336 20.4278 31.5598 20.3915C31.586 20.3551 31.6001 20.3115 31.6001 20.2667C31.6001 20.2219 31.586 20.1782 31.5598 20.1418C31.5336 20.1055 31.4966 20.0784 31.4541 20.0642L31.0166 19.9185C30.9851 19.9081 30.9566 19.8904 30.9331 19.867C30.9097 19.8436 30.892 19.815 30.8816 19.7835L30.7359 19.346Z" fill="white"/>
</g>
<path opacity="0.17" d="M37.1363 22.546C37.1222 22.5035 37.095 22.4665 37.0587 22.4403C37.0223 22.4141 36.9787 22.4 36.9339 22.4C36.889 22.4 36.8454 22.4141 36.809 22.4403C36.7727 22.4665 36.7456 22.5035 36.7314 22.546L36.5857 22.9835C36.5753 23.015 36.5576 23.0435 36.5342 23.067C36.5107 23.0904 36.4822 23.1081 36.4507 23.1185L36.0132 23.2642C35.9707 23.2784 35.9337 23.3055 35.9075 23.3418C35.8813 23.3782 35.8672 23.4218 35.8672 23.4667C35.8672 23.5115 35.8813 23.5551 35.9075 23.5915C35.9337 23.6278 35.9707 23.655 36.0132 23.6691L36.4507 23.815C36.4822 23.8254 36.5107 23.843 36.5341 23.8664C36.5576 23.8898 36.5752 23.9184 36.5857 23.9498L36.7314 24.3873C36.7456 24.4298 36.7727 24.4668 36.809 24.493C36.8454 24.5192 36.889 24.5333 36.9339 24.5333C36.9787 24.5333 37.0223 24.5192 37.0587 24.493C37.095 24.4668 37.1222 24.4298 37.1363 24.3873L37.282 23.9498C37.2924 23.9183 37.3101 23.8898 37.3335 23.8663C37.357 23.8429 37.3855 23.8252 37.417 23.8148L37.8545 23.6691C37.897 23.655 37.934 23.6278 37.9602 23.5915C37.9864 23.5551 38.0005 23.5115 38.0005 23.4667C38.0005 23.4218 37.9864 23.3782 37.9602 23.3418C37.934 23.3055 37.897 23.2784 37.8545 23.2642L37.417 23.1185C37.3855 23.1081 37.357 23.0904 37.3335 23.067C37.3101 23.0435 37.2924 23.015 37.282 22.9835L37.1363 22.546Z" fill="white"/>
<g opacity="0.44" filter="url(#filter7_f_1_492)">
<path d="M16.8697 12.946C16.8556 12.9035 16.8284 12.8665 16.7921 12.8403C16.7557 12.8141 16.7121 12.8 16.6673 12.8C16.6224 12.8 16.5788 12.8141 16.5424 12.8403C16.5061 12.8665 16.479 12.9035 16.4648 12.946L16.3191 13.3835C16.3087 13.415 16.291 13.4435 16.2676 13.467C16.2441 13.4904 16.2156 13.5081 16.1841 13.5185L15.7466 13.6642C15.7041 13.6784 15.6671 13.7055 15.6409 13.7418C15.6147 13.7782 15.6006 13.8218 15.6006 13.8667C15.6006 13.9115 15.6147 13.9551 15.6409 13.9915C15.6671 14.0278 15.7041 14.055 15.7466 14.0691L16.1841 14.215C16.2155 14.2254 16.2441 14.243 16.2675 14.2664C16.291 14.2898 16.3086 14.3184 16.3191 14.3498L16.4648 14.7873C16.479 14.8298 16.5061 14.8668 16.5424 14.893C16.5788 14.9192 16.6224 14.9333 16.6673 14.9333C16.7121 14.9333 16.7557 14.9192 16.7921 14.893C16.8284 14.8668 16.8556 14.8298 16.8697 14.7873L17.0154 14.3498C17.0258 14.3183 17.0435 14.2898 17.0669 14.2663C17.0904 14.2429 17.1189 14.2252 17.1504 14.2148L17.5879 14.0691C17.6304 14.055 17.6674 14.0278 17.6936 13.9915C17.7198 13.9551 17.7339 13.9115 17.7339 13.8667C17.7339 13.8218 17.7198 13.7782 17.6936 13.7418C17.6674 13.7055 17.6304 13.6784 17.5879 13.6642L17.1504 13.5185C17.1189 13.5081 17.0904 13.4904 17.0669 13.467C17.0435 13.4435 17.0258 13.415 17.0154 13.3835L16.8697 12.946Z" fill="white"/>
</g>
<g opacity="0.41" filter="url(#filter8_f_1_492)">
<path d="M21.1363 28.946C21.1222 28.9035 21.095 28.8665 21.0587 28.8403C21.0223 28.8141 20.9787 28.8 20.9339 28.8C20.889 28.8 20.8454 28.8141 20.809 28.8403C20.7727 28.8665 20.7456 28.9035 20.7314 28.946L20.5857 29.3835C20.5753 29.415 20.5576 29.4435 20.5342 29.467C20.5107 29.4904 20.4822 29.5081 20.4507 29.5185L20.0132 29.6642C19.9707 29.6784 19.9337 29.7055 19.9075 29.7418C19.8813 29.7782 19.8672 29.8218 19.8672 29.8667C19.8672 29.9115 19.8813 29.9551 19.9075 29.9915C19.9337 30.0278 19.9707 30.055 20.0132 30.0691L20.4507 30.215C20.4822 30.2254 20.5107 30.243 20.5341 30.2664C20.5576 30.2898 20.5752 30.3184 20.5857 30.3498L20.7314 30.7873C20.7456 30.8298 20.7727 30.8668 20.809 30.893C20.8454 30.9192 20.889 30.9333 20.9339 30.9333C20.9787 30.9333 21.0223 30.9192 21.0587 30.893C21.095 30.8668 21.1222 30.8298 21.1363 30.7873L21.282 30.3498C21.2924 30.3183 21.3101 30.2898 21.3335 30.2663C21.357 30.2429 21.3855 30.2252 21.417 30.2148L21.8545 30.0691C21.897 30.055 21.934 30.0278 21.9602 29.9915C21.9864 29.9551 22.0005 29.9115 22.0005 29.8667C22.0005 29.8218 21.9864 29.7782 21.9602 29.7418C21.934 29.7055 21.897 29.6784 21.8545 29.6642L21.417 29.5185C21.3855 29.5081 21.357 29.4904 21.3335 29.467C21.3101 29.4435 21.2924 29.415 21.282 29.3835L21.1363 28.946Z" fill="white"/>
</g>
<path opacity="0.09" d="M25.4029 20.4127C25.3888 20.3702 25.3616 20.3332 25.3253 20.307C25.2889 20.2808 25.2453 20.2667 25.2005 20.2667C25.1557 20.2667 25.112 20.2808 25.0756 20.307C25.0393 20.3332 25.0122 20.3702 24.998 20.4127L24.8523 20.8502C24.8419 20.8816 24.8242 20.9102 24.8008 20.9337C24.7774 20.9571 24.7488 20.9747 24.7173 20.9852L24.2798 21.1309C24.2373 21.145 24.2003 21.1722 24.1741 21.2085C24.1479 21.2448 24.1338 21.2885 24.1338 21.3333C24.1338 21.3781 24.1479 21.4218 24.1741 21.4581C24.2003 21.4945 24.2373 21.5216 24.2798 21.5357L24.7173 21.6816C24.7488 21.6921 24.7773 21.7097 24.8007 21.7331C24.8242 21.7565 24.8419 21.785 24.8523 21.8165L24.998 22.2539C25.0122 22.2965 25.0393 22.3334 25.0756 22.3597C25.112 22.3859 25.1557 22.4 25.2005 22.4C25.2453 22.4 25.2889 22.3859 25.3253 22.3597C25.3616 22.3334 25.3888 22.2965 25.4029 22.2539L25.5486 21.8165C25.559 21.785 25.5767 21.7564 25.6001 21.733C25.6236 21.7096 25.6521 21.6919 25.6836 21.6814L26.1211 21.5357C26.1636 21.5216 26.2006 21.4945 26.2268 21.4581C26.253 21.4218 26.2671 21.3781 26.2671 21.3333C26.2671 21.2885 26.253 21.2448 26.2268 21.2085C26.2006 21.1722 26.1636 21.145 26.1211 21.1309L25.6836 20.9852C25.6521 20.9747 25.6236 20.9571 25.6001 20.9337C25.5767 20.9102 25.559 20.8816 25.5486 20.8502L25.4029 20.4127Z" fill="white"/>
<path opacity="0.15" d="M46.7359 19.346C46.7218 19.3035 46.6946 19.2665 46.6583 19.2403C46.6219 19.2141 46.5783 19.2 46.5335 19.2C46.4887 19.2 46.445 19.2141 46.4087 19.2403C46.3723 19.2665 46.3452 19.3035 46.331 19.346L46.1854 19.7835C46.1749 19.815 46.1572 19.8436 46.1338 19.867C46.1104 19.8904 46.0818 19.9081 46.0503 19.9185L45.6129 20.0642C45.5703 20.0784 45.5333 20.1055 45.5071 20.1418C45.4809 20.1782 45.4668 20.2219 45.4668 20.2667C45.4668 20.3115 45.4809 20.3551 45.5071 20.3915C45.5333 20.4278 45.5703 20.455 45.6129 20.4691L46.0503 20.615C46.0818 20.6254 46.1103 20.643 46.1338 20.6664C46.1572 20.6898 46.1749 20.7184 46.1854 20.7498L46.331 21.1873C46.3452 21.2298 46.3723 21.2668 46.4087 21.293C46.445 21.3192 46.4887 21.3333 46.5335 21.3333C46.5783 21.3333 46.6219 21.3192 46.6583 21.293C46.6946 21.2668 46.7218 21.2298 46.7359 21.1873L46.8816 20.7498C46.892 20.7183 46.9097 20.6898 46.9331 20.6663C46.9566 20.6429 46.9851 20.6252 47.0166 20.6148L47.4541 20.4691C47.4966 20.455 47.5336 20.4278 47.5598 20.3915C47.586 20.3551 47.6001 20.3115 47.6001 20.2667C47.6001 20.2219 47.586 20.1782 47.5598 20.1418C47.5336 20.1055 47.4966 20.0784 47.4541 20.0642L47.0166 19.9185C46.9851 19.9081 46.9566 19.8904 46.9331 19.867C46.9097 19.8436 46.892 19.815 46.8816 19.7835L46.7359 19.346Z" fill="white"/>
</g>
<g filter="url(#filter9_f_1_492)">
<path d="M6 18.9333H48.6667L39.3913 57.6H15.2754L6 18.9333Z" fill="url(#paint0_linear_1_492)" fill-opacity="0.4"/>
</g>
<path d="M26.7751 15.7959C19.8741 17.4603 16.8296 15.9143 16.1699 14.9333C16.3391 16.2695 17.54 19.0637 20.9905 19.5509C24.4409 20.038 27.0965 19.4494 27.9929 19.0942C27.7088 18.4853 24.424 18.2654 22.8172 18.2316C26.7548 16.9326 31.122 17.2167 32.8134 17.5212C21.6907 23.9756 17.8952 32.5579 17.3877 36.0422C19.2652 35.0612 23.7711 31.9219 26.7751 27.213C29.779 22.5041 35.8411 19.2633 38.4966 18.2316C37.4648 16.7262 33.6761 14.1316 26.7751 15.7959Z" fill="white"/>
<path d="M32.5898 29.1817C28.3491 28.349 26.6757 30.2962 26.3692 31.3739C29.1623 31.0479 35.485 30.8587 38.4304 32.7092C37.1967 30.8433 34.0226 29.5801 32.5898 29.1817Z" fill="white"/>
<path d="M29.6537 32.3519C25.5099 32.066 21.6262 34.0042 20.2023 35.0091C25.7965 33.7555 33.5947 34.2071 36.7946 34.5897C36.1408 33.9629 33.7974 32.6378 29.6537 32.3519Z" fill="white"/>
<path d="M26.7751 15.7959C19.8741 17.4603 16.8296 15.9143 16.1699 14.9333C16.3391 16.2695 17.54 19.0637 20.9905 19.5509C24.4409 20.038 27.0965 19.4494 27.9929 19.0942C27.7088 18.4853 24.424 18.2654 22.8172 18.2316C26.7548 16.9326 31.122 17.2167 32.8134 17.5212C21.6907 23.9756 17.8952 32.5579 17.3877 36.0422C19.2652 35.0612 23.7711 31.9219 26.7751 27.213C29.779 22.5041 35.8411 19.2633 38.4966 18.2316C37.4648 16.7262 33.6761 14.1316 26.7751 15.7959Z" stroke="white" stroke-width="0.683721"/>
<path d="M32.5898 29.1817C28.3491 28.349 26.6757 30.2962 26.3692 31.3739C29.1623 31.0479 35.485 30.8587 38.4304 32.7092C37.1967 30.8433 34.0226 29.5801 32.5898 29.1817Z" stroke="white" stroke-width="0.683721"/>
<path d="M29.6537 32.3519C25.5099 32.066 21.6262 34.0042 20.2023 35.0091C25.7965 33.7555 33.5947 34.2071 36.7946 34.5897C36.1408 33.9629 33.7974 32.6378 29.6537 32.3519Z" stroke="white" stroke-width="0.683721"/>
</g>
<rect x="6.66667" y="4.93332" width="41.3333" height="41.3333" rx="20.6667" stroke="url(#paint1_linear_1_492)" stroke-opacity="0.3" stroke-width="1.33333"/>
</g>
<path d="M62.888 34.6V32.776L77 17.56L78.2 18.52H62.984V16.6H79.112V18.4L65 33.64L63.92 32.68H79.184V34.6H62.888ZM81.8703 21.04L82.9743 21.232L84.0783 21.04V34.6H81.8703V21.04ZM82.9503 19.048C82.5023 19.048 82.1183 18.912 81.7983 18.64C81.4943 18.352 81.3423 18 81.3423 17.584C81.3423 17.152 81.4943 16.8 81.7983 16.528C82.1183 16.24 82.5023 16.096 82.9503 16.096C83.4303 16.096 83.8223 16.24 84.1263 16.528C84.4303 16.8 84.5823 17.152 84.5823 17.584C84.5823 18 84.4303 18.352 84.1263 18.64C83.8223 18.912 83.4303 19.048 82.9503 19.048ZM87.0354 21.088H89.2434L90.0114 25.672V34.6H87.8034V25.36L87.0354 21.088ZM95.6034 20.776C96.8674 20.776 97.9394 21.032 98.8194 21.544C99.6994 22.04 100.371 22.768 100.835 23.728C101.299 24.672 101.531 25.816 101.531 27.16V34.6H99.3234V27.544C99.3234 25.928 98.9474 24.712 98.1954 23.896C97.4594 23.064 96.3794 22.648 94.9554 22.648C93.9634 22.648 93.0914 22.872 92.3394 23.32C91.6034 23.768 91.0274 24.392 90.6114 25.192C90.2114 25.976 90.0114 26.896 90.0114 27.952L89.1234 27.328C89.2354 25.984 89.5794 24.824 90.1554 23.848C90.7314 22.872 91.4834 22.12 92.4114 21.592C93.3554 21.048 94.4194 20.776 95.6034 20.776ZM112.473 17.608C111.289 17.608 110.393 17.864 109.785 18.376C109.193 18.872 108.897 19.736 108.897 20.968V34.6H106.689V21.328C106.689 20.272 106.881 19.328 107.265 18.496C107.649 17.664 108.249 17.008 109.065 16.528C109.881 16.048 110.945 15.808 112.257 15.808C112.897 15.808 113.457 15.872 113.937 16C114.433 16.112 114.897 16.256 115.329 16.432V18.28C114.897 18.04 114.449 17.872 113.985 17.776C113.537 17.664 113.033 17.608 112.473 17.608ZM103.737 23.704V21.904H115.305V23.704H103.737ZM117.921 16.12H120.129V34.6H117.921V16.12ZM129.322 34.912C128.09 34.912 127.042 34.664 126.178 34.168C125.33 33.656 124.674 32.92 124.21 31.96C123.762 31 123.538 29.848 123.538 28.504V21.088H125.746V28.144C125.746 29.744 126.106 30.96 126.826 31.792C127.546 32.608 128.594 33.016 129.97 33.016C130.946 33.016 131.794 32.8 132.514 32.368C133.234 31.92 133.794 31.296 134.194 30.496C134.594 29.696 134.794 28.768 134.794 27.712L135.658 28.216C135.562 29.576 135.226 30.76 134.65 31.768C134.09 32.776 133.354 33.552 132.442 34.096C131.53 34.64 130.49 34.912 129.322 34.912ZM135.538 34.6L134.794 29.992V21.088H137.002V30.328L137.746 34.6H135.538Z" fill="white"/>
<defs>
<filter id="filter0_dd_1_492" x="0.666666" y="0.266655" width="53.3337" height="54.6667" filterUnits="userSpaceOnUse" color-interpolation-filters="sRGB">
<feFlood flood-opacity="0" result="BackgroundImageFix"/>
<feColorMatrix in="SourceAlpha" type="matrix" values="0 0 0 0 0 0 0 0 0 0 0 0 0 0 0 0 0 0 127 0" result="hardAlpha"/>
<feMorphology radius="4" operator="dilate" in="SourceAlpha" result="effect1_dropShadow_1_492"/>
<feOffset/>
<feComposite in2="hardAlpha" operator="out"/>
<feColorMatrix type="matrix" values="0 0 0 0 0.109804 0 0 0 0 1 0 0 0 0 1 0 0 0 0.17 0"/>
<feBlend mode="normal" in2="BackgroundImageFix" result="effect1_dropShadow_1_492"/>
<feColorMatrix in="SourceAlpha" type="matrix" values="0 0 0 0 0 0 0 0 0 0 0 0 0 0 0 0 0 0 127 0" result="hardAlpha"/>
<feMorphology radius="1.33333" operator="erode" in="SourceAlpha" result="effect2_dropShadow_1_492"/>
<feOffset dy="2.66667"/>
<feGaussianBlur stdDeviation="3.33333"/>
<feComposite in2="hardAlpha" operator="out"/>
<feColorMatrix type="matrix" values="0 0 0 0 0.161857 0 0 0 0 0.171682 0 0 0 0 0.197884 0 0 0 0.5 0"/>
<feBlend mode="normal" in2="effect1_dropShadow_1_492" result="effect2_dropShadow_1_492"/>
<feBlend mode="normal" in="SourceGraphic" in2="effect2_dropShadow_1_492" result="shape"/>
</filter>
<filter id="filter1_f_1_492" x="38.8005" y="3.99999" width="4.80046" height="4.8" filterUnits="userSpaceOnUse" color-interpolation-filters="sRGB">
<feFlood flood-opacity="0" result="BackgroundImageFix"/>
<feBlend mode="normal" in="SourceGraphic" in2="BackgroundImageFix" result="shape"/>
<feGaussianBlur stdDeviation="0.666667" result="effect1_foregroundBlur_1_492"/>
</filter>
<filter id="filter2_f_1_492" x="31.3337" y="14.6667" width="4.80046" height="4.8" filterUnits="userSpaceOnUse" color-interpolation-filters="sRGB">
<feFlood flood-opacity="0" result="BackgroundImageFix"/>
<feBlend mode="normal" in="SourceGraphic" in2="BackgroundImageFix" result="shape"/>
<feGaussianBlur stdDeviation="0.666667" result="effect1_foregroundBlur_1_492"/>
</filter>
<filter id="filter3_f_1_492" x="18.5339" y="14.6667" width="4.80046" height="4.8" filterUnits="userSpaceOnUse" color-interpolation-filters="sRGB">
<feFlood flood-opacity="0" result="BackgroundImageFix"/>
<feBlend mode="normal" in="SourceGraphic" in2="BackgroundImageFix" result="shape"/>
<feGaussianBlur stdDeviation="0.666667" result="effect1_foregroundBlur_1_492"/>
</filter>
<filter id="filter4_f_1_492" x="30.2673" y="5.06666" width="4.80046" height="4.8" filterUnits="userSpaceOnUse" color-interpolation-filters="sRGB">
<feFlood flood-opacity="0" result="BackgroundImageFix"/>
<feBlend mode="normal" in="SourceGraphic" in2="BackgroundImageFix" result="shape"/>
<feGaussianBlur stdDeviation="0.666667" result="effect1_foregroundBlur_1_492"/>
</filter>
<filter id="filter5_f_1_492" x="1.46745" y="3.99999" width="4.80046" height="4.8" filterUnits="userSpaceOnUse" color-interpolation-filters="sRGB">
<feFlood flood-opacity="0" result="BackgroundImageFix"/>
<feBlend mode="normal" in="SourceGraphic" in2="BackgroundImageFix" result="shape"/>
<feGaussianBlur stdDeviation="0.666667" result="effect1_foregroundBlur_1_492"/>
</filter>
<filter id="filter6_f_1_492" x="28.1335" y="17.8667" width="4.80046" height="4.8" filterUnits="userSpaceOnUse" color-interpolation-filters="sRGB">
<feFlood flood-opacity="0" result="BackgroundImageFix"/>
<feBlend mode="normal" in="SourceGraphic" in2="BackgroundImageFix" result="shape"/>
<feGaussianBlur stdDeviation="0.666667" result="effect1_foregroundBlur_1_492"/>
</filter>
<filter id="filter7_f_1_492" x="14.2673" y="11.4667" width="4.80046" height="4.8" filterUnits="userSpaceOnUse" color-interpolation-filters="sRGB">
<feFlood flood-opacity="0" result="BackgroundImageFix"/>
<feBlend mode="normal" in="SourceGraphic" in2="BackgroundImageFix" result="shape"/>
<feGaussianBlur stdDeviation="0.666667" result="effect1_foregroundBlur_1_492"/>
</filter>
<filter id="filter8_f_1_492" x="18.5339" y="27.4667" width="4.80046" height="4.8" filterUnits="userSpaceOnUse" color-interpolation-filters="sRGB">
<feFlood flood-opacity="0" result="BackgroundImageFix"/>
<feBlend mode="normal" in="SourceGraphic" in2="BackgroundImageFix" result="shape"/>
<feGaussianBlur stdDeviation="0.666667" result="effect1_foregroundBlur_1_492"/>
</filter>
<filter id="filter9_f_1_492" x="3.33333" y="16.2667" width="48.0003" height="44" filterUnits="userSpaceOnUse" color-interpolation-filters="sRGB">
<feFlood flood-opacity="0" result="BackgroundImageFix"/>
<feBlend mode="normal" in="SourceGraphic" in2="BackgroundImageFix" result="shape"/>
<feGaussianBlur stdDeviation="1.33333" result="effect1_foregroundBlur_1_492"/>
</filter>
<linearGradient id="paint0_linear_1_492" x1="27.3333" y1="18.9333" x2="26.6875" y2="50.9342" gradientUnits="userSpaceOnUse">
<stop stop-color="#597AB9" stop-opacity="0"/>
<stop offset="1" stop-color="#00F8FF"/>
</linearGradient>
<linearGradient id="paint1_linear_1_492" x1="27.3333" y1="4.26665" x2="27.3333" y2="46.9333" gradientUnits="userSpaceOnUse">
<stop stop-color="white"/>
<stop offset="0.510417" stop-color="white" stop-opacity="0"/>
</linearGradient>
<clipPath id="clip0_1_492">
<rect x="6" y="4.26665" width="42.6667" height="42.6667" rx="21.3333" fill="white"/>
</clipPath>
</defs>
</svg>
